<?xml version="1.0" encoding="utf-8"?>
<!-- Generator: Adobe Illustrator 18.1.0, SVG Export Plug-In . SVG Version: 6.00 Build 0)  -->
<!DOCTYPE svg PUBLIC "-//W3C//DTD SVG 1.1//EN" "http://www.w3.org/Graphics/SVG/1.1/DTD/svg11.dtd">
<svg version="1.1" id="Layer_1" xmlns="http://www.w3.org/2000/svg" xmlns:xlink="http://www.w3.org/1999/xlink" x="0px" y="0px"
	 viewBox="0 0 933 404" enable-background="new 0 0 933 404" xml:space="preserve">
<g id="cloud">
	
		<text transform="matrix(1 0 0 1 492.6041 236.8849)" opacity="0.36" fill="#E6F4F1" font-family="'FontAwesome'" font-size="116.4884"></text>
	
		<text transform="matrix(1 0 0 1 712.9543 314.1401)" opacity="0.59" fill="#CAE3DC" font-family="'FontAwesome'" font-size="116.4884"></text>
	
		<text transform="matrix(1 0 0 1 174.3525 350.8808)" opacity="0.59" fill="#CAE3DC" font-family="'FontAwesome'" font-size="74.6488"></text>
	
		<text transform="matrix(1 0 0 1 417.1245 350.8807)" opacity="0.36" fill="#DDE9E4" font-family="'FontAwesome'" font-size="52.1197"></text>
	
		<text transform="matrix(1 0 0 1 879.3331 159.2545)" opacity="0.36" fill="#DDE9E4" font-family="'FontAwesome'" font-size="52.1197"></text>
	
		<text transform="matrix(1 0 0 1 531.0567 61.2143)" opacity="0.36" fill="#DDE9E4" font-family="'FontAwesome'" font-size="49.7689"></text>
	
		<text transform="matrix(1 0 0 1 310.3675 114.3698)" opacity="0.59" fill="#CAE3DC" font-family="'FontAwesome'" font-size="77.0625"></text>
	
		<text transform="matrix(1 0 0 1 31.0573 208.8969)" opacity="0.36" fill="#E6F4F1" font-family="'FontAwesome'" font-size="116.4884"></text>
	<g id="Holes">
		<g id="XMLID_2_">
			<g>
				<path fill="#FEEA3A" d="M228.4,78c29.7,0,53.9,24.1,53.9,54s-24.1,53.9-53.9,53.9s-54-24.1-54-53.9S198.5,78,228.4,78z
					 M240.4,111.2c0-1.1-0.9-2-2-2s-2,0.9-2,2s0.9,2,2,2S240.4,112.3,240.4,111.2z M235.1,120.4h-1.7c0,2.9-2.3,5-5,5s-5-2.3-5-5
					h-1.9c0,3.7,3,6.9,6.9,6.9C232.1,127.3,235.1,124.3,235.1,120.4z M220.3,111.2c0-1.1-0.9-2-2-2c-1.1,0-2,0.9-2,2s0.9,2,2,2
					C219.5,113.2,220.3,112.3,220.3,111.2z"/>
			</g>
		</g>
	</g>
</g>
<g id="Layer_4">
</g>
<g id="Layer_3" display="none">
	
		<text transform="matrix(1 0 0 1 147.0523 190.3894)" display="inline" fill="#F9CE20" font-family="'FontAwesome'" font-size="162.4909"></text>
</g>
</svg>
