<svg xmlns="http://www.w3.org/2000/svg" viewBox="0 0 3024 792" enable-background="new 0 0 3024 792"><path fill="#E6F4F1" d="M1758.9 464.4h-138.7c-31.5 0-57.1-25.6-57.1-57.1 0-22.8 13.5-42.6 32.9-51.6-.1-1.8-.3-3.7-.3-5.5 0-36.1 29.2-65.2 65.2-65.2 27.3 0 50.6 16.7 60.4 40.5 5.6-5 13-7.9 21.2-7.9 18 0 32.6 14.7 32.6 32.6 0 6.5-1.9 12.5-5.2 17.6 21.7 5.1 37.8 24.5 37.8 47.7.2 27-21.8 48.9-48.8 48.9z" opacity=".36" enable-background="new"/><path fill="#CAE3DC" d="M2190.9 615.8h-138.7c-31.5 0-57.1-25.6-57.1-57.1 0-22.8 13.5-42.6 32.9-51.6-.1-1.8-.3-3.7-.3-5.5 0-36.1 29.2-65.2 65.2-65.2 27.3 0 50.6 16.7 60.4 40.5 5.6-5 13-7.9 21.2-7.9 18 0 32.6 14.7 32.6 32.6 0 6.5-1.9 12.5-5.2 17.6 21.7 5.1 37.9 24.5 37.9 47.7 0 27-21.9 48.9-48.9 48.9zM1064.7 687.9h-88.9c-20.2 0-36.6-16.4-36.6-36.6 0-14.6 8.7-27.3 21.1-33.1-.1-1.1-.2-2.4-.2-3.5 0-23.1 18.7-41.8 41.8-41.8 17.5 0 32.4 10.7 38.7 26 3.6-3.2 8.3-5.1 13.6-5.1 11.5 0 20.9 9.4 20.9 20.9 0 4.2-1.2 8-3.3 11.3 13.9 3.3 24.3 15.7 24.3 30.5 0 17.3-14.1 31.4-31.4 31.4z" opacity=".59" enable-background="new"/><path fill="#DDE9E4" d="M1502.8 687.9h-62c-14.1 0-25.5-11.5-25.5-25.5 0-10.2 6-19 14.7-23.1-.1-.8-.1-1.7-.1-2.5 0-16.1 13.1-29.2 29.2-29.2 12.2 0 22.6 7.5 27 18.1 2.5-2.2 5.8-3.5 9.5-3.5 8 0 14.6 6.6 14.6 14.6 0 2.9-.9 5.6-2.3 7.9 9.7 2.3 16.9 10.9 16.9 21.3-.1 12.1-9.9 21.9-22 21.9zM2408.9 312.2h-62c-14.1 0-25.5-11.5-25.5-25.5 0-10.2 6-19 14.7-23.1-.1-.8-.1-1.7-.1-2.5 0-16.1 13.1-29.2 29.2-29.2 12.2 0 22.6 7.5 27 18.1 2.5-2.2 5.8-3.5 9.5-3.5 8 0 14.6 6.6 14.6 14.6 0 2.9-.9 5.6-2.3 7.9 9.7 2.3 16.9 10.9 16.9 21.3-.1 12.1-9.9 21.9-22 21.9zM1722.2 120h-59.2c-13.4 0-24.4-10.9-24.4-24.4 0-9.7 5.8-18.2 14-22-.1-.8-.1-1.6-.1-2.3 0-15.4 12.5-27.9 27.9-27.9 11.7 0 21.6 7.1 25.8 17.3 2.4-2.1 5.6-3.4 9-3.4 7.7 0 13.9 6.3 13.9 13.9 0 2.8-.8 5.3-2.2 7.5 9.3 2.2 16.2 10.5 16.2 20.4 0 11.5-9.4 20.9-20.9 20.9z" opacity=".36" enable-background="new"/><path fill="#CAE3DC" d="M1335.4 224.2h-91.7c-20.8 0-37.8-16.9-37.8-37.8 0-15.1 8.9-28.2 21.8-34.1-.1-1.2-.2-2.4-.2-3.6 0-23.9 19.3-43.2 43.2-43.2 18 0 33.5 11 40 26.8 3.7-3.3 8.6-5.2 14-5.2 11.9 0 21.6 9.7 21.6 21.6 0 4.3-1.3 8.3-3.5 11.6 14.3 3.4 25 16.2 25 31.5 0 17.9-14.5 32.4-32.4 32.4z" opacity=".59" enable-background="new"/><path fill="#E6F4F1" d="M854.1 409.5h-138.6c-31.5 0-57.1-25.6-57.1-57.1 0-22.8 13.5-42.6 32.9-51.6-.1-1.8-.3-3.7-.3-5.5 0-36.1 29.2-65.2 65.2-65.2 27.3 0 50.6 16.7 60.4 40.5 5.6-5 13-7.9 21.2-7.9 18 0 32.6 14.7 32.6 32.6 0 6.5-1.9 12.5-5.2 17.6 21.7 5.1 37.9 24.5 37.9 47.7-.1 27-22 48.9-49 48.9z" opacity=".36" enable-background="new"/><path fill="#FEEA3A" d="M1045.2 152.9c58.2 0 105.7 47.2 105.7 105.9s-47.2 105.7-105.7 105.7c-58.4 0-105.9-47.2-105.9-105.7s47.3-105.9 105.9-105.9zm23.6 65.1c0-2.2-1.8-3.9-3.9-3.9s-3.9 1.8-3.9 3.9 1.8 3.9 3.9 3.9 3.9-1.7 3.9-3.9zm-10.4 18h-3.3c0 5.7-4.5 9.8-9.8 9.8-5.3 0-9.8-4.5-9.8-9.8h-3.7c0 7.3 5.9 13.5 13.5 13.5 7.2.1 13.1-5.8 13.1-13.5zm-29-18c0-2.2-1.8-3.9-3.9-3.9-2.2 0-3.9 1.8-3.9 3.9s1.8 3.9 3.9 3.9c2.3 0 3.9-1.7 3.9-3.9z"/></svg>