<?xml version="1.0" encoding="utf-8"?>
<!-- Generator: Adobe Illustrator 18.1.0, SVG Export Plug-In . SVG Version: 6.00 Build 0)  -->
<!DOCTYPE svg PUBLIC "-//W3C//DTD SVG 1.1//EN" "http://www.w3.org/Graphics/SVG/1.1/DTD/svg11.dtd">
<svg version="1.1" id="Layer_1" xmlns="http://www.w3.org/2000/svg" xmlns:xlink="http://www.w3.org/1999/xlink" x="0px" y="0px"
	 viewBox="0 0 1800 2628" enable-background="new 0 0 1800 2628" xml:space="preserve" preserveAspectRatio="none">
<path fill="#5B6DB4" d="M0,0h149.9v2628H0V0z"/>
<path fill="#7B8EC8" d="M149.9,0h149.9v2628H149.9V0z"/>
<path fill="#A7C1E5" d="M300.1,0H450v2628H300.1V0z"/>
<path fill="#C0D9F1" d="M450,0h149.9v2628H450V0z"/>
<path fill="#D1E3F5" d="M599.9,0h149.9v2628H599.9V0z"/>
<path fill="#DFE6EF" d="M750.1,0H900v2628H750.1V0z"/>
<path fill="#F5F3F2" d="M900,0h149.9v2628H900L900,0z"/>
<path fill="#F5E6BC" d="M1049.9,0h149.9v2628h-149.9V0z"/>
<path fill="#FDE394" d="M1200.1,0H1350v2628h-149.9V0z"/>
<path fill="#FFCC6E" d="M1350,0h149.9v2628H1350V0z"/>
<path fill="#E0783D" d="M1499.9,0h149.9v2628h-149.9V0z"/>
<path fill="#C94027" d="M1650.1,0H1800v2628h-149.9V0z"/>
</svg>
