<?xml version="1.0" encoding="utf-8"?>
<!-- Generator: Adobe Illustrator 18.1.0, SVG Export Plug-In . SVG Version: 6.00 Build 0)  -->
<!DOCTYPE svg PUBLIC "-//W3C//DTD SVG 1.1//EN" "http://www.w3.org/Graphics/SVG/1.1/DTD/svg11.dtd">
<svg version="1.1" id="Layer_1" xmlns="http://www.w3.org/2000/svg" xmlns:xlink="http://www.w3.org/1999/xlink" x="0px" y="0px"
	 viewBox="0 0 1800 2628" enable-background="new 0 0 1800 2628" xml:space="preserve" preserveAspectRatio="none">
<path fill="#5DC9F3" d="M0,0h150v2628H0V0z"/>
<path fill="#70CBCE" d="M150,0h150v2628H150V0z"/>
<path fill="#8CCDA3" d="M300,0h150v2628H300V0z"/>
<path fill="#AACF79" d="M450,0h150v2628H450V0z"/>
<path fill="#BBCC5C" d="M600,0h150v2628H600V0z"/>
<path fill="#EECB1A" d="M750,0h150v2628H750V0z"/>
<path fill="#FDBD16" d="M900,0h150v2628H900V0z"/>
<path fill="#FAAB1A" d="M1050,0h150v2628h-150V0z"/>
<path fill="#F68C20" d="M1200,0h150v2628h-150V0z"/>
<path fill="#F16235" d="M1350,0h150v2628h-150V0z"/>
<path fill="#F05440" d="M1500,0h150v2628h-150V0z"/>
<path fill="#EF4849" d="M1650,0h150v2628h-150V0z"/>
</svg>
