<svg xmlns="http://www.w3.org/2000/svg" viewBox="0 0 1276 571" enable-background="new 0 0 1276 571"><path fill="#5B6DB4" d="M0 0h106.3v571h-106.3z"/><path fill="#7B8EC8" d="M106.3 0h106.3v571h-106.3z"/><path fill="#A7C1E5" d="M212.7 0h106.3v571h-106.3z"/><path fill="#C0D9F1" d="M319 0h106.3v571h-106.3z"/><path fill="#D1E3F5" d="M425.3 0h106.3v571h-106.3z"/><path fill="#DFE6EF" d="M531.7 0h106.3v571h-106.3z"/><path fill="#EBE5DA" d="M638 0h106.3v571h-106.3z"/><path fill="#F5E6BC" d="M744.3 0h106.3v571h-106.3z"/><path fill="#FDE394" d="M850.7 0h106.3v571h-106.3z"/><path fill="#FFCC6E" d="M957 0h106.3v571h-106.3z"/><path fill="#E0783D" d="M1063.3 0h106.3v571h-106.3z"/><path fill="#C94027" d="M1169.7 0h106.3v571h-106.3z"/></svg>